<svg xmlns="http://www.w3.org/2000/svg" width="21.172" height="18.074" viewBox="0 0 21.172 18.074">
  <g id="Group_5" data-name="Group 5" transform="translate(-2021 -185.926)">
    <path id="Path_51" data-name="Path 51" d="M0,0H21.172V18.074H0Z" transform="translate(2021 185.926)" fill="#2234a3"/>
    <path id="Path_55" data-name="Path 55" d="M0,0H11.361V14.717H0Z" transform="translate(2030.037 188.25)" fill="#aaa"/>
    <path id="Path_52" data-name="Path 52" d="M0,0H7.488V14.717H0Z" transform="translate(2021.775 188.25)" fill="#fff"/>
    <path id="Path_56" data-name="Path 56" d="M4.777,0,9.553,7.23H0Z" transform="translate(2030.037 200.385) rotate(-90)" fill="#2a2a2a"/>
    <path id="Path_53" data-name="Path 53" d="M0,0H5.939V1.033H0Z" transform="translate(2022.549 190.832)"/>
    <path id="Path_54" data-name="Path 54" d="M0,0H5.939V1.033H0Z" transform="translate(2022.549 193.93)"/>
    <path id="Path_57" data-name="Path 57" d="M0,0H5.939V1.033H0Z" transform="translate(2022.549 197.029)"/>
    <path id="Path_58" data-name="Path 58" d="M0,0H5.939V1.033H0Z" transform="translate(2022.549 200.127)"/>
  </g>
</svg>
